<svg id="Capa_1" data-name="Capa 1" xmlns="http://www.w3.org/2000/svg" xmlns:xlink="http://www.w3.org/1999/xlink" viewBox="0 0 394.02 225.13"><defs><style>.cls-1{fill:none;}.cls-2{fill:#657e58;}.cls-3{fill:#89a977;}.cls-4{opacity:0.6;}.cls-5{clip-path:url(#clip-path);}.cls-6{clip-path:url(#clip-path-2);}.cls-7{clip-path:url(#clip-path-3);}.cls-8{clip-path:url(#clip-path-4);}.cls-9{opacity:0.5;}.cls-10{clip-path:url(#clip-path-5);}.cls-11{fill:#294a73;}.cls-12{fill:#f5eecb;}.cls-13{fill:#fff;}.cls-14{clip-path:url(#clip-path-6);}.cls-15{fill:#3a66a9;}.cls-16{fill:#fddb47;}.cls-17{fill:#243955;}</style><clipPath id="clip-path"><rect class="cls-1" x="254.33" y="7.77" width="87.64" height="108.22"/></clipPath><clipPath id="clip-path-2"><rect class="cls-1" x="254.91" y="8.52" width="90.37" height="107.57"/></clipPath><clipPath id="clip-path-3"><rect class="cls-1" x="47.83" y="113.26" width="99.17" height="103.23"/></clipPath><clipPath id="clip-path-4"><rect class="cls-1" x="45.08" y="113.24" width="101.03" height="101.62"/></clipPath><clipPath id="clip-path-5"><rect class="cls-1" x="63.1" y="16.75" width="268.55" height="191.78"/></clipPath><clipPath id="clip-path-6"><rect class="cls-1" x="9.75" y="64.14" width="377.75" height="99.5"/></clipPath></defs><title>Mesa de trabajo 1</title><g id="Layout"><rect class="cls-2" x="238.68" y="39.58" width="99.98" height="43.32" transform="matrix(0.33, -0.94, 0.94, 0.33, 136.04, 313.79)"/><path class="cls-3" d="M282.3,23.73l-21.91,63a13.35,13.35,0,0,1,8.23,17v0l9.44,3.28a13.36,13.36,0,0,1,17-8.22l21.88-62.95a13.32,13.32,0,0,1-8.22-17v0l-9.44-3.28a13.31,13.31,0,0,1-16.93,8.24l-.07,0m3.89,64.88a6.66,6.66,0,1,1-4.1-8.48,6.66,6.66,0,0,1,4.1,8.48v0m16.25-22.59a14.59,14.59,0,1,1-9-18.56h0a14.61,14.61,0,0,1,9,18.56m1.27-27.79a6.66,6.66,0,1,1-4.1-8.48,6.66,6.66,0,0,1,4.1,8.48"/><path class="cls-3" d="M277.26,57.26a12.11,12.11,0,1,0,.05-.14l-.05.14m19.38,5.3,2.48.87-.64,1.83-2.36-.82a8.58,8.58,0,0,1-3.49,4.25L290.21,66a6,6,0,0,0,2.9-3,1.77,1.77,0,0,0-.78-2.35c-1.11-.39-1.85,1.09-2.95,2.45s-2.54,2.59-4.95,1.74a4.74,4.74,0,0,1-3.24-5.62l-2.37-.83.62-1.83,2.39.83a8.61,8.61,0,0,1,2.4-3.2l2.35,2.45a4.36,4.36,0,0,0-1.85,2.19c-.3.86-.26,1.79.52,2.06s1.74-.79,2.21-1.4c1.53-2,3.07-3.73,5.81-2.76s3.63,3,3.37,5.79"/><rect class="cls-2" x="257.49" y="43.03" width="99.98" height="43.33" transform="translate(54.05 250.44) rotate(-48.12)"/><path class="cls-3" d="M316.1,27.68,271.58,77.33a13.33,13.33,0,0,1,1,18.81h0l7.45,6.68a13.35,13.35,0,0,1,18.84-1L343.36,52.2a13.33,13.33,0,0,1-1-18.81h0l-7.43-6.67a13.31,13.31,0,0,1-18.81,1h0M294.64,89a6.66,6.66,0,1,1-.51-9.41,6.66,6.66,0,0,1,.51,9.41h0m23.7-14.57a14.59,14.59,0,1,1-1.12-20.6h0a14.6,14.6,0,0,1,1.12,20.6m11.91-25.13a6.66,6.66,0,1,1-.51-9.41,6.66,6.66,0,0,1,.51,9.41h0"/><path class="cls-3" d="M298.5,56.65a12.08,12.08,0,1,0,17.06-.93,12.08,12.08,0,0,0-17.06.93l0,0M314.33,69l2,1.75L315,72.23l-1.87-1.66A7.51,7.51,0,0,1,311,72.23a7.17,7.17,0,0,1-2.68.91l-1.2-3.38a6.09,6.09,0,0,0,3.84-1.65,1.76,1.76,0,0,0,.18-2.46c-.87-.8-2.13.28-3.67,1.11s-3.34,1.41-5.24-.3a4.74,4.74,0,0,1-.81-6.44l-1.9-1.69,1.28-1.45,1.88,1.69a8.63,8.63,0,0,1,3.45-2l1.22,3.17a4.4,4.4,0,0,0-2.55,1.31c-.61.68-.92,1.55-.32,2.1s1.92-.06,2.59-.44c2.18-1.24,4.26-2.26,6.42-.31s2.18,4.2.87,6.65"/><g class="cls-4"><g class="cls-5"><rect class="cls-2" x="248.14" y="40.2" width="99.98" height="43.33" transform="translate(95.06 288.73) rotate(-59.89)"/></g></g><g class="cls-4"><g class="cls-6"><rect class="cls-2" x="250.12" y="40.66" width="99.98" height="43.32" transform="matrix(0.54, -0.84, 0.84, 0.54, 85.88, 281.54)"/></g></g><rect class="cls-2" x="249.39" y="40.5" width="99.98" height="43.33" transform="translate(89.37 284.4) rotate(-58.35)"/><path class="cls-3" d="M301.24,24.15l-35,56.74a13.34,13.34,0,0,1,4.35,18.34l8.51,5.25a13.35,13.35,0,0,1,18.36-4.36l35-56.74A13.33,13.33,0,0,1,328.11,25L319.6,19.8a13.31,13.31,0,0,1-18.31,4.37l0,0M291,88.33a6.67,6.67,0,1,1-2.19-9.17h0A6.68,6.68,0,0,1,291,88.33m20.73-18.55A14.58,14.58,0,1,1,307,49.72h0a14.6,14.6,0,0,1,4.77,20.07M319,42.94a6.67,6.67,0,1,1-2.19-9.17h0A6.67,6.67,0,0,1,319,42.94"/><path class="cls-3" d="M289.07,55.79a12.08,12.08,0,1,0,16.62-3.93h0a12.07,12.07,0,0,0-16.6,3.91l0,0m17.78,9.37,2.23,1.38-1,1.65L306,66.89a8.85,8.85,0,0,1-4.33,3.37l-1.79-3.11a6,6,0,0,0,3.48-2.3,1.76,1.76,0,0,0-.26-2.46c-1-.63-2,.65-3.41,1.75s-3,2-5.2.63a4.74,4.74,0,0,1-2-6.19l-2.14-1.33,1-1.65,2.15,1.34a8.7,8.7,0,0,1,3-2.62l1.77,2.91A4.4,4.4,0,0,0,296,59c-.48.78-.64,1.69.06,2.13s1.87-.4,2.46-.89c1.92-1.61,3.8-3,6.27-1.44s2.89,3.74,2,6.38"/><rect class="cls-2" x="56.57" y="145.8" width="99.98" height="43.33" transform="translate(-91.88 172.07) rotate(-58.86)"/><path class="cls-3" d="M105,205.48l34.5-57a13.33,13.33,0,0,1-4.52-18.3L126.45,125a13.34,13.34,0,0,1-18.32,4.52l-34.47,57a13.34,13.34,0,0,1,4.51,18.31L86.72,210a13.34,13.34,0,0,1,18.3-4.51m9.65-64.27a6.66,6.66,0,1,1,2.26,9.15,6.67,6.67,0,0,1-2.26-9.15M94.08,159.93a14.59,14.59,0,1,1,5,20l0,0a14.61,14.61,0,0,1-4.94-20m-7,26.92A6.66,6.66,0,1,1,89.33,196a6.66,6.66,0,0,1-2.25-9.15"/><path class="cls-3" d="M116.89,173.73a12.08,12.08,0,1,0-16.59,4.09h0a12,12,0,0,0,16.5-4l.08-.13M99,164.52l-2.25-1.36,1-1.66,2.14,1.29a8.78,8.78,0,0,1,4.3-3.44l1.81,3.1a6.19,6.19,0,0,0-3.46,2.33,1.76,1.76,0,0,0,.28,2.46c1,.62,2-.67,3.4-1.78s3-2,5.19-.68a4.74,4.74,0,0,1,2,6.18l2.15,1.3-1,1.67-2.16-1.32a8.47,8.47,0,0,1-3,2.64l-1.76-2.92a4.29,4.29,0,0,0,2.26-1.76c.46-.78.62-1.69-.08-2.12s-1.88.41-2.46.92c-1.91,1.62-3.77,3-6.25,1.49s-2.92-3.72-2.1-6.37"/><rect class="cls-2" x="38.88" y="138.5" width="99.98" height="43.33" transform="translate(-77.36 83.23) rotate(-36.14)"/><path class="cls-3" d="M72.76,194.61l53.84-39.28a13.32,13.32,0,0,1,2.9-18.61h0l-5.9-8.08A13.35,13.35,0,0,1,105,125.7L51.15,165a13.33,13.33,0,0,1-2.9,18.62l5.88,8.06a13.33,13.33,0,0,1,18.63,2.91h0m33.72-55.56a6.66,6.66,0,1,1-1.44,9.31l0,0a6.65,6.65,0,0,1,1.45-9.3h0m-26.21,9.33a14.58,14.58,0,1,1-3.18,20.38,14.58,14.58,0,0,1,3.18-20.38M63.39,170.47A6.67,6.67,0,1,1,62,179.8v0a6.67,6.67,0,0,1,1.45-9.31"/><path class="cls-3" d="M96,169.92a12.08,12.08,0,1,0-16.91-2.59A12.08,12.08,0,0,0,96,169.92h0M83.1,154.52l-1.55-2.12,1.57-1.15,1.47,2a7.71,7.71,0,0,1,2.49-1.18,7.86,7.86,0,0,1,2.81-.33l.47,3.56a6.16,6.16,0,0,0-4.09.81,1.77,1.77,0,0,0-.69,2.38c.68.95,2.14.17,3.82-.33s3.56-.69,5,1.38a4.72,4.72,0,0,1-.54,6.47l1.49,2-1.56,1.15-1.48-2a8.58,8.58,0,0,1-3.8,1.27L88,165.07a4.27,4.27,0,0,0,2.77-.75c.73-.54,1.23-1.32.75-2s-1.89-.33-2.63-.1c-2.38.76-4.63,1.32-6.34-1s-1.26-4.55.53-6.68"/><g class="cls-4"><g class="cls-7"><rect class="cls-2" x="47.42" y="143.21" width="99.98" height="43.33" transform="translate(-90.24 126.65) rotate(-47.91)"/></g></g><g class="cls-4"><g class="cls-8"><rect class="cls-2" x="45.6" y="142.39" width="99.98" height="43.32" transform="translate(-88.35 116.99) rotate(-45.42)"/></g></g><rect class="cls-2" x="46.3" y="142.69" width="99.98" height="43.33" transform="translate(-89.12 120.68) rotate(-46.38)"/><path class="cls-3" d="M86.56,201.14l46-48.24a13.32,13.32,0,0,1-.46-18.83h0l-7.24-6.91a13.35,13.35,0,0,1-18.86.45L60,175.86a13.33,13.33,0,0,1,.46,18.84h0l7.24,6.89a13.32,13.32,0,0,1,18.82-.46h0m23.31-60.67a6.66,6.66,0,1,1,.23,9.42,6.66,6.66,0,0,1-.23-9.42m-24.1,13.86a14.58,14.58,0,1,1,.5,20.62,14.57,14.57,0,0,1-.5-20.62M73.08,179.1a6.66,6.66,0,1,1,.22,9.42,6.66,6.66,0,0,1-.22-9.42"/><path class="cls-3" d="M105,172.72a12.08,12.08,0,1,0-17.08.4h0a12.07,12.07,0,0,0,17.06-.4h0M89.58,159.86l-1.91-1.81L89,156.64l1.81,1.72a7.83,7.83,0,0,1,2.23-1.59,7.32,7.32,0,0,1,2.7-.83l1.1,3.41A6.11,6.11,0,0,0,93,160.88a1.77,1.77,0,0,0-.26,2.46c.85.82,2.14-.21,3.71-1s3.38-1.31,5.22.46a4.74,4.74,0,0,1,.62,6.46l1.82,1.74-1.33,1.41-1.82-1.75a8.49,8.49,0,0,1-3.52,1.92l-1.12-3.2a4.38,4.38,0,0,0,2.58-1.23c.63-.66,1-1.52.39-2.09s-1.91,0-2.6.36c-2.21,1.17-4.32,2.12-6.43.11s-2-4.26-.66-6.67"/><g class="cls-9"><g class="cls-10"><polygon class="cls-11" points="130.24 208.53 63.1 112.64 130.24 16.75 264.52 16.75 331.65 112.64 264.52 208.53 130.24 208.53"/></g></g><polygon class="cls-12" points="95.37 150.3 133.19 204.32 261.57 204.32 299.39 150.3 95.37 150.3"/><polygon class="cls-13" points="133.19 204.32 69 112.64 133.19 20.96 261.57 20.96 325.75 112.64 261.57 204.32 133.19 204.32"/><g class="cls-9"><g class="cls-14"><path class="cls-11" d="M387.5,151.68a12,12,0,0,1-12,12H21.7a12,12,0,0,1-12-12V76.09a12,12,0,0,1,12-12H375.55a12,12,0,0,1,12,12Z"/></g></g><rect class="cls-11" x="7.26" y="61.64" width="377.75" height="99.5" rx="11.95" ry="11.95"/><path class="cls-15" d="M163.38,170.18H136.46a.89.89,0,0,0-.89.89h0v20a.89.89,0,0,0,.88.9h26.93a.89.89,0,0,0,.89-.89h0v-20a.89.89,0,0,0-.88-.9h0"/><path class="cls-16" d="M161.22,181H146.76a2.54,2.54,0,1,0-4.89-1.32,3,3,0,0,0-.73-.11,2.53,2.53,0,1,0,0,5.06h0a2.28,2.28,0,0,0,.73-.12,2.52,2.52,0,0,0,5-.59,2.57,2.57,0,0,0-.11-.72h9.81v3h1.17v-1.52h1.13v1.52H160v-3h1.18Zm-16.88-1.86a1.13,1.13,0,1,1-1.13,1.13,1.14,1.14,0,0,1,1.13-1.13h0m-4.32,3a1.13,1.13,0,0,1,2.25,0,1.13,1.13,0,0,1-2.25.22.81.81,0,0,1,0-.22m4.31,3a1.13,1.13,0,1,1,1.13-1.13,1.13,1.13,0,0,1-1.13,1.13h0"/><path class="cls-15" d="M183.69,177.86a4.73,4.73,0,1,0-.43,9.45h.43a5,5,0,0,0,2.77-.8v.8h2.11v-4.72a4.72,4.72,0,0,0-4.71-4.73h-.17m0,7.51h-.05a2.79,2.79,0,0,1,0-5.57h.05a2.79,2.79,0,0,1,0,5.57"/><path class="cls-15" d="M194.12,177.93a4.37,4.37,0,0,0-2.23.61v-.68h-2.14v9.47h2.14v-5a2.23,2.23,0,1,1,4.46,0v5h2.15v-5a4.38,4.38,0,0,0-4.38-4.37"/><path class="cls-15" d="M173.37,174.59c2.44,0,3.88,1.44,3.88,3.44a2.84,2.84,0,0,1-1.89,2.75,3.07,3.07,0,0,1,2.29,3c0,2-1.59,3.52-4,3.52H169V174.59Zm-.29,5.4a1.79,1.79,0,0,0,2-1.54,1.93,1.93,0,0,0,0-.24c0-1.08-.75-1.78-2.07-1.78h-1.9V180Zm.23,5.52c1.3,0,2.14-.7,2.14-1.83a1.84,1.84,0,0,0-1.79-1.89h-2.54v3.71Z"/><path class="cls-15" d="M259.19,186.4a1,1,0,1,1-1-1,1,1,0,0,1,1,1m-1.72,0a.73.73,0,0,0,.71.77h0a.77.77,0,1,0-.75-.79v0m.59.51h-.22v-1h.37a.75.75,0,0,1,.33.07.29.29,0,0,1,.09.21.22.22,0,0,1-.2.22h0a.3.3,0,0,1,.18.24.48.48,0,0,0,.07.24h-.24a.85.85,0,0,1-.08-.24c0-.1-.07-.15-.2-.15H258Zm0-.55h.1c.12,0,.22,0,.22-.14s-.06-.14-.2-.14h-.12Z"/><path class="cls-15" d="M216,177.92a4.72,4.72,0,1,0,.2,0H216m0,7.41H216a2.75,2.75,0,0,1,0-5.49H216a2.75,2.75,0,0,1,0,5.49"/><path class="cls-15" d="M209.11,183.68a4.34,4.34,0,1,1-.53-6.11,4.42,4.42,0,0,1,.53.53l1.51-1.33a6.34,6.34,0,1,0,0,8.24Z"/><path class="cls-15" d="M236.82,177.91a4.66,4.66,0,0,0-4.82,4.48V191h2.08v-4.58a5,5,0,0,0,2.74.78,4.67,4.67,0,0,0,.43-9.33h-.43m0,7.42h0a2.76,2.76,0,0,1,0-5.51h0a2.76,2.76,0,0,1,0,5.51"/><path class="cls-15" d="M226.39,177.91a4.66,4.66,0,0,0-4.82,4.48V191h2.08v-4.58a5,5,0,0,0,2.74.78,4.67,4.67,0,0,0,.43-9.33h-.43m0,7.42h0a2.76,2.76,0,0,1,0-5.51h0a2.76,2.76,0,0,1,0,5.51"/><path class="cls-15" d="M246.64,177.91a4.67,4.67,0,0,0,0,9.33,4.62,4.62,0,0,0,3.84-1.61l-1.22-1.22a3,3,0,0,1-2.36,1c-1.61,0-2.68-.94-2.68-2.29h6.87v-.55a4.32,4.32,0,0,0-4-4.65h-.52m-2.38,3.74a2.47,2.47,0,0,1,2.51-2,2.16,2.16,0,0,1,2.21,2Z"/><path class="cls-15" d="M254,182.57v-7.86h-2.08v7.86a4.63,4.63,0,0,0,4.61,4.67h.14v-1.91a2.68,2.68,0,0,1-2.67-2.71v-.05"/><path class="cls-17" d="M40.83,98.1v9.23H57v12.18H40.83V129H57.92v12.19H26.45V85.92H57.92V98.1Z"/><path class="cls-17" d="M81.16,98.1v9.23H96.93v12.18H81.16v21.72H66.79V85.92H98.54V98.1Z"/><path class="cls-17" d="M120.91,98.1v9.23h16.21v12.18H120.91V129H138v12.19H106.53V85.92H138V98.1Z"/><path class="cls-17" d="M186.4,104.48a15.61,15.61,0,0,0-12.61-6.09c-8.81,0-14.75,6.75-14.75,15.33,0,8.73,6,15,15,15a16.53,16.53,0,0,0,12.39-5.87v17.28c-4.77,1.46-8.22,2.56-12.69,2.56A30.74,30.74,0,0,1,153,134.55c-6.08-5.5-8.87-12.69-8.87-20.9a29,29,0,0,1,8.14-20.25,30,30,0,0,1,21.05-8.94,33.9,33.9,0,0,1,13.13,2.78Z"/><path class="cls-17" d="M217.27,141.23H202.9V98.1H191V85.92h38.14V98.1H217.27Z"/><path class="cls-17" d="M248.73,141.23H234.35V85.92h14.38Z"/><path class="cls-17" d="M281.29,119.52l13.43-33.6h15.62l-23.62,55.31H275.57L252.32,85.92h15.62Z"/><path class="cls-17" d="M372.3,112.55c0,17.89-12.83,30.51-30.58,30.51s-30.59-12.62-30.59-30.51c0-16.73,14.68-28.46,30.59-28.46S372.3,95.82,372.3,112.55Zm-46.2.07c0,9.54,7,16.51,15.62,16.51s15.62-7,15.62-16.51c0-7.63-7-14.59-15.62-14.59s-15.62,7-15.62,14.59Z"/><path class="cls-13" d="M39.58,94.87v9.24H55.79v12.22H39.58v9.54H56.67V138H25.2V82.74H56.67V94.91Z"/><path class="cls-13" d="M79.91,94.87v9.24H95.68v12.22H79.91V138H65.54V82.74H97.3V94.91Z"/><path class="cls-13" d="M119.66,94.87v9.24h16.21v12.22H119.66v9.54h17.09V138H105.28V82.74h31.47V94.91Z"/><path class="cls-13" d="M185.15,101.25a15.61,15.61,0,0,0-12.61-6.08c-8.81,0-14.75,6.74-14.75,15.33s6,15,15,15a16.5,16.5,0,0,0,12.39-5.87v17.24c-4.77,1.47-8.21,2.57-12.69,2.57a30.76,30.76,0,0,1-20.78-8.11c-6.09-5.5-8.88-12.69-8.88-20.91A29,29,0,0,1,151,90.18a30,30,0,0,1,21-9A33.73,33.73,0,0,1,185.15,84Z"/><path class="cls-13" d="M216,138H201.65V94.87H189.76V82.7h38.15V94.87H216Z"/><path class="cls-13" d="M247.48,138H233.11V82.7h14.37Z"/><path class="cls-13" d="M280,116.33l13.43-33.59h15.62L285.45,138H274.32l-23.25-55.3h15.62Z"/><path class="cls-13" d="M371,109.33c0,17.9-12.84,30.52-30.59,30.52s-30.55-12.63-30.55-30.52c0-16.72,14.67-28.46,30.59-28.46S371,92.6,371,109.33Zm-46.21.08c0,9.53,7,16.5,15.62,16.5s15.62-7,15.62-16.5c0-7.63-7-14.6-15.62-14.6s-15.58,7-15.58,14.59Z"/><path class="cls-11" d="M147.34,36.48a6.66,6.66,0,0,0-4.17-1.6c-1.15,0-2.69.67-2.69,2s1.7,2,2.79,2.31l1.6.48c3.37,1,6,2.7,6,6.61,0,2.41-.58,4.87-2.5,6.51a10.6,10.6,0,0,1-6.87,2.28A15,15,0,0,1,133,52.33l2.7-5.07a8.59,8.59,0,0,0,5.58,2.5c1.47,0,3-.73,3-2.43s-2.47-2.38-3.82-2.76c-4-1.13-6.54-2.15-6.54-6.83,0-4.91,3.49-8.12,8.34-8.12a16.69,16.69,0,0,1,7.57,2Z"/><path class="cls-11" d="M179.35,41.91c0,7.82-5.61,13.34-13.37,13.34S152.6,49.73,152.6,41.91c0-7.32,6.42-12.45,13.38-12.45S179.35,34.59,179.35,41.91Zm-20.2,0a6.84,6.84,0,1,0,13.66.74c0-.24,0-.49,0-.74a6.85,6.85,0,0,0-13.66,0Z"/><path class="cls-11" d="M202.39,54.45h-7.83l-5.93-9.31h-.07v9.31h-6.28V30.26h9.39c4.78,0,8.41,2.28,8.41,7.44,0,3.34-1.86,6.23-5.29,6.84ZM188.56,41.1h.61c2.06,0,4.36-.38,4.36-3s-2.3-3-4.36-3h-.61Z"/><path class="cls-11" d="M213.71,54.45h-6.28V35.59h-5.2V30.26h16.68v5.33h-5.2Z"/><path class="cls-11" d="M227.47,35.59v4h7.09v5.32h-7.09v4.17H235v5.33H221.19V30.26H235v5.33Z"/><path class="cls-11" d="M264.36,41.91c0,7.82-5.61,13.34-13.37,13.34s-13.38-5.52-13.38-13.34c0-7.32,6.42-12.45,13.38-12.45S264.36,34.59,264.36,41.91Zm-20.2,0a6.84,6.84,0,0,0,13.66.74c0-.24,0-.49,0-.74a6.85,6.85,0,0,0-13.66,0Z"/></g></svg>