<?xml version="1.0" encoding="utf-8"?>
<!-- Generator: Adobe Illustrator 16.0.0, SVG Export Plug-In . SVG Version: 6.00 Build 0)  -->
<!DOCTYPE svg PUBLIC "-//W3C//DTD SVG 1.1//EN" "http://www.w3.org/Graphics/SVG/1.1/DTD/svg11.dtd">
<svg version="1.1" id="Layer_1" xmlns="http://www.w3.org/2000/svg" xmlns:xlink="http://www.w3.org/1999/xlink" x="0px" y="0px"
	 width="528.1914063px" height="134.5742188px" viewBox="0 0 528.1914063 134.5742188"
	 style="enable-background:new 0 0 528.1914063 134.5742188;" xml:space="preserve">
<g>
	<path d="M93.1401367,129.90625H1V5.190918h30.7133789v97.9106445h61.4267578V129.90625z"/>
	<path d="M235.1674805,67.7348633c0,36.2973633-29.2246094,64.9633789-66.4526367,64.9633789
		c-37.2285156,0-66.4526367-28.6660156-66.4526367-64.9633789c0-36.4838867,29.2241211-65.3359375,66.4526367-65.3359375
		C205.9428711,2.3989258,235.1674805,31.2509766,235.1674805,67.7348633z M204.4536133,67.7348633
		c0-21.40625-15.4492188-37.2285156-35.7387695-37.2285156s-35.7392578,15.8222656-35.7392578,37.2285156
		c0,21.2202148,15.449707,36.855957,35.7392578,36.855957S204.4536133,88.9550781,204.4536133,67.7348633z"/>
	<path d="M379.2412109,56.3803711c0.5585938,4.4672852,0.7441406,8.1899414,0.7441406,11.3544922
		c0,37.7866211-26.9902344,64.9633789-64.5917969,64.9633789c-37.7856445,0-67.1967773-28.4794922-67.1967773-65.1494141
		c0-36.4838867,29.2246094-65.1499023,66.6381836-65.1499023c27.7363281,0,52.1210938,13.0297852,60.8691406,37.4145508
		l-29.5957031,8.5625c-7.2597656-14.1464844-19.1738281-17.8696289-31.2734375-17.8696289
		c-20.2885742,0-35.7387695,16.0083008-35.7387695,37.0424805c0,21.2197266,15.8222656,37.2285156,36.6704102,37.2285156
		c16.3808594,0,28.2929688-8.5625,32.9472656-22.3369141h-38.1601563V56.3803711H379.2412109z"/>
	<path d="M525.9208984,67.7348633c0,36.2973633-29.2226563,64.9633789-66.4511719,64.9633789
		s-66.453125-28.6660156-66.453125-64.9633789c0-36.4838867,29.2246094-65.3359375,66.453125-65.3359375
		S525.9208984,31.2509766,525.9208984,67.7348633z M495.2080078,67.7348633c0-21.40625-15.4492188-37.2285156-35.7382813-37.2285156
		c-20.2910156,0-35.7402344,15.8222656-35.7402344,37.2285156c0,21.2202148,15.4492188,36.855957,35.7402344,36.855957
		C479.7587891,104.5908203,495.2080078,88.9550781,495.2080078,67.7348633z"/>
</g>
</svg>
