<svg id="Capa_1" data-name="Capa 1" xmlns="http://www.w3.org/2000/svg" viewBox="0 0 461.98 91.13"><defs><style>.cls-1{fill:#3b66aa;}.cls-2{fill:#fddb47;}</style></defs><title>Mesa de trabajo 1</title><g id="Arte"><path class="cls-1" d="M107.41,6.35H9.55A3.26,3.26,0,0,0,6.29,9.61h0V82.38a3.26,3.26,0,0,0,3.25,3.27h97.87a3.26,3.26,0,0,0,3.25-3.25V9.61a3.26,3.26,0,0,0-3.24-3.26h0"/><path class="cls-2" d="M99.55,45.77H47a9.19,9.19,0,1,0-17.72-4.84,9.34,9.34,0,0,0-2.67-.4,9.2,9.2,0,0,0,0,18.39,9.34,9.34,0,0,0,2.67-.4A9.18,9.18,0,0,0,47.17,54.4c-.05-.22-.11-.43-.17-.64H82.64v11H86.9V59.25H91v5.5h4.27v-11h4.26ZM38.19,39a4.1,4.1,0,1,1-4.09,4.11v0A4.1,4.1,0,0,1,38.19,39M22.51,49.76a4.1,4.1,0,1,1,4.1,4.1h0a4.09,4.09,0,0,1-4.09-4.09h0M38.19,60.5a4.09,4.09,0,1,1,4.1-4.09,4.09,4.09,0,0,1-4.1,4.09h0"/><path class="cls-1" d="M181.22,34.27c-9.7,0-17.75,7-17.75,17.17s8.05,17.17,17.75,17.17a18.49,18.49,0,0,0,10.09-2.9v2.9H199V51.44c0-10.12-8-17.17-17.74-17.17m.08,27.28h-.18a10.12,10.12,0,0,1,0-20.23h.18a10.12,10.12,0,0,1,0,20.23"/><path class="cls-1" d="M219.15,34.51A15.75,15.75,0,0,0,211,36.75V34.27h-7.8V68.61H211V50.41a8.11,8.11,0,1,1,16.22,0v18.2H235V50.41a15.92,15.92,0,0,0-15.91-15.9"/><path class="cls-1" d="M143.71,22.39c8.89,0,14.11,5.22,14.11,12.48a10.32,10.32,0,0,1-6.86,10,11.07,11.07,0,0,1,8.3,11c0,7.46-5.75,12.81-14.38,12.81H127.76V22.39ZM142.66,42c4.58,0,7.32-2.61,7.32-6.47s-2.74-6.47-7.52-6.47h-6.92V42Zm.85,20.07c4.71,0,7.78-2.55,7.78-6.67s-2.68-6.8-7.52-6.8h-8.23V62.07Z"/><path class="cls-1" d="M455.68,65.31A3.57,3.57,0,1,1,452,61.84h.11a3.49,3.49,0,0,1,3.56,3.42Zm-6.24,0a2.69,2.69,0,0,0,2.6,2.78h.11a2.64,2.64,0,0,0,2.64-2.66v-.09a2.68,2.68,0,1,0-5.35-.33,1.82,1.82,0,0,0,0,.33Zm2.13,1.83h-.8V63.66a7.38,7.38,0,0,1,1.33-.1,2.12,2.12,0,0,1,1.21.25,1,1,0,0,1,.34.77.88.88,0,0,1-.72.8h0a1,1,0,0,1,.64.85,2.65,2.65,0,0,0,.26.87H453a3.24,3.24,0,0,1-.27-.85c-.06-.38-.28-.55-.72-.55h-.39Zm0-2H452c.45,0,.81-.15.81-.51s-.24-.53-.75-.53a1.62,1.62,0,0,0-.44,0Z"/><path class="cls-1" d="M298.57,34.48c-9.57,0-17.51,6.89-17.52,16.94s7.95,17,17.52,17,17.51-6.9,17.52-17S308.14,34.48,298.57,34.48Zm.09,26.93h-.18a10,10,0,0,1,0-20h.18a10,10,0,0,1,0,20Z"/><path class="cls-1" d="M273.64,55.43a15.76,15.76,0,1,1-2-22.2,16.24,16.24,0,0,1,1.91,1.89L279,30.31a23.55,23.55,0,0,0-17.75-8,23,23,0,0,0,0,46.07,23.51,23.51,0,0,0,17.83-8.12Z"/><path class="cls-1" d="M374.39,34.43c-9.59,0-17.55,7-17.55,17V82.22h7.57V65.51a18.34,18.34,0,0,0,10,2.86c9.58,0,17.53-6.9,17.53-17S384,34.43,374.39,34.43Zm.08,27h-.18a10,10,0,0,1,0-20h.18a10,10,0,0,1,0,20Z"/><path class="cls-1" d="M336.47,34.43c-9.59,0-17.54,7-17.54,17V82.22h7.55V65.51a18.43,18.43,0,0,0,10,2.86c9.58,0,17.53-6.9,17.54-17S346.05,34.43,336.47,34.43Zm.08,27h-.18a10,10,0,0,1,0-20h.18a10,10,0,0,1,0,20Z"/><path class="cls-1" d="M410.07,34.43c-8.88,0-16.24,6.91-16.25,17s7.37,17,16.25,17c5.35,0,11-1.67,14-5.86l-4.45-4.44A11,11,0,0,1,411,61.77c-5.83,0-9.74-3.44-9.74-8.31h25a19,19,0,0,0,.11-2C426.31,41.34,420,34.43,410.07,34.43ZM401.4,48c0-3,3.92-7.12,9.14-7.12,3.44,0,8,2.61,8,7.12Z"/><path class="cls-1" d="M436.72,51.4V22.81h-7.57V51.4h0c0,10,7.8,16.82,17.24,17v-7a9.73,9.73,0,0,1-9.67-9.79Z"/></g></svg>